<svg width="30" height="30" viewBox="0 0 30 30" fill="none" xmlns="http://www.w3.org/2000/svg">
    <path opacity="0.4" d="M0.46875 26.6051V18.75C0.46875 18.377 0.616908 18.0194 0.880631 17.7556C1.14435 17.4919 1.50204 17.3438 1.875 17.3438H9.73008C10.9828 17.3438 11.6104 18.8584 10.7262 19.7461L8.27988 22.1924C10.1015 23.9041 12.5097 24.8529 15.0094 24.8438C19.5451 24.8396 23.465 21.7301 24.5473 17.4111C24.5846 17.2583 24.6722 17.1224 24.796 17.0252C24.9197 16.928 25.0725 16.8751 25.2299 16.875H28.5879C28.6911 16.8749 28.7931 16.8976 28.8865 16.9413C28.98 16.9851 29.0627 17.0488 29.1287 17.1281C29.1948 17.2074 29.2426 17.3003 29.2687 17.4002C29.2948 17.5 29.2986 17.6044 29.2799 17.7059C28.0119 24.4383 22.101 29.5312 15 29.5312C11.2599 29.5363 7.66289 28.094 4.9623 25.5064L2.87109 27.5977C1.9834 28.4854 0.46875 27.8578 0.46875 26.6051Z" fill="#4B6584"/>
    <path d="M0.720684 12.2941C1.98807 5.56172 7.899 0.468748 15 0.468748C18.7401 0.46374 22.3371 1.90602 25.0377 4.49355L27.1289 2.40234C28.0148 1.5164 29.5312 2.14394 29.5312 3.39843V11.25C29.5312 11.623 29.3831 11.9806 29.1194 12.2444C28.8556 12.5081 28.4979 12.6562 28.125 12.6562H20.2699C19.0172 12.6562 18.3896 11.1416 19.2738 10.2539L21.7201 7.80761C19.8987 6.0959 17.4907 5.14708 14.9912 5.15625C10.4525 5.16035 6.53436 8.27226 5.45272 12.5889C5.41534 12.7417 5.32777 12.8776 5.20401 12.9748C5.08025 13.072 4.92746 13.1249 4.7701 13.125H1.41209C1.30894 13.125 1.20705 13.1023 1.11365 13.0585C1.02025 13.0147 0.937624 12.9509 0.871642 12.8716C0.805659 12.7923 0.75793 12.6995 0.731842 12.5997C0.705754 12.4999 0.701945 12.3956 0.720684 12.2941V12.2941Z" fill="#4B6584"/>
</svg>
